<?xml version="1.0" encoding="UTF-8"?><svg xmlns="http://www.w3.org/2000/svg" viewBox="0 0 1292.96 230.13"><defs><style>.d{fill:none;}.e,.f{fill:#144a6e;}.f{font-family:NeuronRegular, Neuron;font-size:201.78px;}</style></defs><g id="a"/><g id="b"><g id="c"><text class="f" transform="translate(0 172.62)"><tspan x="0" y="0" xml:space="preserve">Column P  rt</tspan></text><g><path class="e" d="M1057.82,173.1h-5.03c-.34-.07-.67-.16-1.01-.2-1.9-.25-3.83-.39-5.7-.76-10.44-2.03-19.49-6.66-26.89-14.38-7.01-7.31-11.45-15.93-13.35-25.87-.34-1.77-.58-3.56-.86-5.35v-7.55c.14-.89,.27-1.78,.41-2.67,1.96-12.51,7.25-23.24,16.94-31.62,8.64-7.47,18.77-11.39,30.05-12.18,9.06-.63,17.72,1.3,25.83,5.45,1.71,.88,3.31,1.98,5.06,3.05-2.71,.45-5.21,.71-7.63,1.3-5.4,1.32-9.45,4.48-12.16,9.36-2.11,3.8-3.05,7.93-3.56,12.18-.17,1.44-.27,2.89-.39,4.22-2.44,.14-4.79,.13-7.1,.45-6.09,.84-11,3.69-14.34,8.97-3.23,5.11-4.31,10.85-4.76,16.75-.06,.72,.42,1.64,.94,2.21,1.25,1.36,2.69,2.54,4.02,3.83,7.2,6.94,14.38,13.89,21.58,20.83,.3,.29,.63,.56,1.1,.98,.04-4.78,.68-9.18,2.26-13.41,3.08-8.25,9.9-13.67,18.99-13.75,1.6-.01,3.2,0,4.93,0,0-.26,0-.64,0-1.01-.04-3.74,.55-7.37,1.74-10.91,1.72-5.12,4.5-9.44,9.3-12.22,1.69-.98,3.51-1.63,5.66-2.12,.54,3.19,1.22,6.22,1.54,9.29,.75,7.3-.32,14.42-2.7,21.34-2.41,7-6.06,13.27-11.24,18.58-7.7,7.89-17.09,12.56-27.93,14.38-1.89,.32-3.78,.57-5.68,.85Z"/><path class="d" d="M1057.82,173.1c1.89-.28,3.79-.53,5.68-.85,10.84-1.82,20.23-6.49,27.93-14.38,5.18-5.31,8.83-11.58,11.24-18.58,2.39-6.93,3.45-14.04,2.7-21.34-.31-3.07-1-6.11-1.54-9.29-2.15,.49-3.97,1.14-5.66,2.12-4.79,2.78-7.58,7.1-9.3,12.22-1.19,3.54-1.78,7.18-1.74,10.91,0,.38,0,.75,0,1.01-1.73,0-3.33-.01-4.93,0-9.1,.08-15.91,5.5-18.99,13.75-1.58,4.23-2.22,8.64-2.26,13.41-.47-.42-.8-.69-1.1-.98-7.19-6.94-14.38-13.89-21.58-20.83-1.33-1.28-2.77-2.47-4.02-3.83-.52-.56-.99-1.49-.94-2.21,.45-5.89,1.53-11.64,4.76-16.75,3.33-5.28,8.24-8.13,14.34-8.97,2.3-.32,4.65-.3,7.1-.45,.12-1.32,.21-2.77,.39-4.22,.51-4.26,1.45-8.39,3.56-12.18,2.71-4.88,6.76-8.05,12.16-9.36,2.42-.59,4.92-.85,7.63-1.3-1.75-1.06-3.35-2.17-5.06-3.05-8.11-4.14-16.77-6.07-25.83-5.45-11.28,.78-21.41,4.7-30.05,12.18-9.69,8.38-14.98,19.1-16.94,31.62-.14,.89-.28,1.78-.41,2.67v-46.76h100.86v100.86h-48.01Z"/><path class="d" d="M1004.96,126.55c.28,1.78,.52,3.57,.86,5.35,1.9,9.93,6.35,18.56,13.35,25.87,7.4,7.72,16.45,12.36,26.89,14.38,1.88,.36,3.8,.5,5.7,.76,.34,.05,.68,.14,1.01,.2h-47.82v-46.56Z"/></g></g></g></svg>